<?xml version="1.0" standalone="no"?>
<!DOCTYPE svg PUBLIC "-//W3C//DTD SVG 20010904//EN"
 "http://www.w3.org/TR/2001/REC-SVG-20010904/DTD/svg10.dtd">
<svg version="1.0" xmlns="http://www.w3.org/2000/svg"
 width="1000.000000pt" height="1000.000000pt" viewBox="0 0 1000.000000 1000.000000"
 preserveAspectRatio="xMidYMid meet">

<g transform="translate(0.000000,1000.000000) scale(0.100000,-0.100000)"
fill="#000000" stroke="none">
<path d="M4515 9993 c-97 -7 -398 -54 -541 -83 -797 -162 -1556 -530 -2204
-1071 -160 -133 -476 -449 -609 -609 -420 -504 -733 -1067 -929 -1670 -93
-285 -147 -521 -199 -855 -28 -179 -28 -183 -28 -690 0 -550 1 -571 61 -905
273 -1527 1281 -2877 2667 -3571 1595 -800 3483 -702 4970 258 2014 1300 2825
3831 1942 6063 -628 1590 -2071 2771 -3755 3074 -318 57 -343 59 -850 61 -261
1 -497 0 -525 -2z"/>
</g>
</svg>
